<svg width="40" height="38" viewBox="0 0 40 38" fill="none" xmlns="http://www.w3.org/2000/svg">
<g clip-path="url(#clip0_497_1363)">
<path d="M39.8879 21.0527C39.9243 20.7959 39.9607 20.5391 40 20.2828V18.0572C39.9695 17.8483 39.9414 17.6392 39.9133 17.4299C39.8479 16.9434 39.7861 16.4838 39.6961 16.0267C38.681 10.8736 35.7629 6.753 31.0231 3.77948C28.2343 2.03003 25.0481 1.01876 21.5528 0.773763C21.4106 0.7638 21.2898 0.73612 21.1996 0.714722H18.7545C18.525 0.743432 18.2952 0.770819 18.0653 0.798155C17.5499 0.859553 17.0169 0.923011 16.5032 1.00109C8.69098 2.18865 2.10332 8.0129 0.483186 15.1646C0.355065 15.7301 0.274711 16.3035 0.189686 16.9105C0.149137 17.1997 0.107209 17.4987 0.0598663 17.7952C0.0439446 17.8952 0.0227141 17.9871 0.00403261 18.0682C0.00265326 18.074 0.00138043 18.0798 0 18.0855V20.3347C0.00212283 20.3435 0.00414022 20.3524 0.00626304 20.3613C0.0291913 20.459 0.0576391 20.5806 0.0693152 20.7191C0.300612 23.4679 1.17771 26.0752 2.67589 28.4681C7.16128 35.6317 16.0271 39.132 24.7372 37.1797C26.7023 36.7391 28.5752 36.0263 30.3038 35.0613C30.6133 34.8885 30.7597 34.6178 30.7054 34.3187C30.6534 34.0329 30.4184 33.8132 30.0921 33.7455C29.9011 33.7059 29.6997 33.7617 29.3231 33.9592C24.6051 36.4344 19.6307 36.9598 14.5389 35.5206C9.92262 34.2163 6.10171 31.3268 3.77993 27.3842C1.46081 23.446 0.902578 18.9099 2.2082 14.6116C3.42444 10.6074 6.16699 7.15427 9.93079 4.88822C13.6987 2.61971 18.2232 1.70238 22.6699 2.30609C27.2475 2.92718 31.0824 4.89734 34.0683 8.1618C37.4406 11.8488 38.8864 16.1811 38.3657 21.0384C38.0816 23.6895 37.084 26.2406 35.4007 28.6209C35.2501 28.8339 35.1929 29.0602 35.2395 29.2582C35.2794 29.428 35.3948 29.5728 35.573 29.6769C35.9578 29.9015 36.3912 29.7858 36.677 29.382C38.1502 27.3022 39.1355 25.0843 39.6058 22.7898C39.722 22.2225 39.8026 21.6543 39.8879 21.0527Z" fill="#B777BE"/>
<path d="M23.8768 15.9043C23.5805 15.6303 23.0983 15.6279 22.8008 15.8992C22.6572 16.03 22.5774 16.2054 22.5762 16.3931C22.5749 16.5811 22.6526 16.7579 22.7949 16.8909C22.9368 17.0204 23.1276 17.0971 23.3319 17.0981C23.5361 17.0992 23.727 17.0277 23.8696 16.8971C24.0147 16.7642 24.0949 16.587 24.0956 16.3981C24.0964 16.2115 24.0192 16.0367 23.8782 15.9056C23.8777 15.9051 23.8772 15.9047 23.8768 15.9043Z" fill="#B777BE"/>
<path d="M20.7752 18.7717C20.479 18.4978 19.9967 18.4953 19.6992 18.7666C19.5556 18.8974 19.4758 19.0728 19.4746 19.2605C19.4733 19.4485 19.551 19.6253 19.6933 19.7583C19.8353 19.8879 20.026 19.9645 20.2303 19.9655C20.4345 19.9666 20.6254 19.8952 20.7681 19.7645C20.9131 19.6316 20.9934 19.4544 20.9941 19.2655C20.9948 19.079 20.9176 18.9041 20.7767 18.773C20.7761 18.7726 20.7757 18.7721 20.7752 18.7717Z" fill="#B777BE"/>
<path d="M26.9783 13.0371C26.6821 12.7632 26.1998 12.7607 25.9023 13.032C25.7587 13.1628 25.679 13.3382 25.6777 13.5259C25.6765 13.7139 25.7541 13.8907 25.8964 14.0237C26.0384 14.1533 26.2292 14.2299 26.4335 14.2309C26.6376 14.232 26.8285 14.1605 26.9712 14.0299C27.1162 13.897 27.1965 13.7198 27.1972 13.5309C27.1979 13.3443 27.1207 13.1695 26.9798 13.0384C26.9792 13.0379 26.9788 13.0375 26.9783 13.0371Z" fill="#B777BE"/>
<path d="M17.6756 21.6392C17.3794 21.3652 16.8971 21.3628 16.5996 21.634C16.456 21.7649 16.3762 21.9402 16.375 22.1279C16.3737 22.3159 16.4514 22.4928 16.5937 22.6257C16.7357 22.7553 16.9264 22.832 17.1307 22.8329C17.3349 22.834 17.5258 22.7626 17.6685 22.6319C17.8135 22.499 17.8937 22.3218 17.8945 22.133C17.8952 21.9464 17.818 21.7715 17.6771 21.6405C17.6765 21.64 17.6761 21.6396 17.6756 21.6392Z" fill="#B777BE"/>
<path d="M14.5741 24.5065C14.2778 24.2325 13.7956 24.2301 13.498 24.5013C13.3544 24.6322 13.2747 24.8076 13.2735 24.9952C13.2722 25.1833 13.3498 25.3601 13.4921 25.4931C13.6341 25.6226 13.8249 25.6993 14.0292 25.7002C14.2333 25.7014 14.4242 25.6299 14.5669 25.4992C14.7119 25.3664 14.7922 25.1892 14.7929 25.0003C14.7936 24.8137 14.7165 24.6388 14.5755 24.5078C14.575 24.5073 14.5745 24.5069 14.5741 24.5065Z" fill="#B777BE"/>
<path d="M30.6881 16.3716C30.2979 16.3716 29.9816 16.0791 29.9816 15.7183V10.8043C29.9816 10.4995 29.7134 10.2515 29.3838 10.2515H24.0698C23.6796 10.2515 23.3633 9.95898 23.3633 9.59816C23.3633 9.23733 23.6796 8.94482 24.0698 8.94482H29.3838C30.4926 8.94482 31.3947 9.77901 31.3947 10.8043V15.7183C31.3947 16.0791 31.0783 16.3716 30.6881 16.3716Z" fill="#B777BE"/>
<path d="M15.9364 30.0128L10.6223 30.0127C9.51348 30.0127 8.61143 29.1786 8.61143 28.1532L8.61133 23.2393C8.61133 22.8784 8.92765 22.5859 9.31785 22.5859C9.70805 22.5859 10.0244 22.8784 10.0244 23.2393L10.0245 28.1532C10.0245 28.458 10.2927 28.706 10.6223 28.706L15.9364 28.7061C16.3266 28.7061 16.6429 28.9986 16.6429 29.3595C16.6429 29.7203 16.3266 30.0128 15.9364 30.0128Z" fill="#B777BE"/>
</g>
<defs>
<clipPath id="clip0_497_1363">
<rect width="40" height="37" fill="white" transform="translate(0 0.714722)"/>
</clipPath>
</defs>
</svg>
