<svg width="33" height="41" viewBox="0 0 33 41" fill="none" xmlns="http://www.w3.org/2000/svg">
<g clip-path="url(#clip0_497_1373)">
<path d="M32.089 16.9049L29.8656 14.5144C30.2979 13.8043 30.4518 12.9767 30.2983 12.1572C30.1292 11.2559 29.6094 10.4726 28.8344 9.95139L25.6267 7.79441C25.6468 7.29066 25.5518 6.78482 25.3409 6.30837C24.9689 5.46691 24.2822 4.81628 23.4067 4.47691L16.313 1.72712C15.453 1.39389 14.5164 1.40274 13.6749 1.73847C13.035 1.10701 12.1461 0.714722 11.1643 0.714722H3.52743C1.58234 0.714722 0 2.25326 0 4.14451V33.5724C0 37.5108 3.29559 40.7147 7.34572 40.7147C9.18913 40.7147 10.876 40.0511 12.1671 38.9565C12.1855 38.9439 12.2035 38.93 12.2211 38.915L25.9737 26.8809C26.2214 26.664 26.2415 26.2925 26.0185 26.0512C25.7954 25.8103 25.4129 25.7908 25.1656 26.0076L24.599 26.5033L22.758 24.5237L25.6481 20.4605L28.2758 23.286L27.0802 24.3321C26.8324 24.5493 26.8119 24.9205 27.0354 25.1617C27.1546 25.2908 27.3191 25.3563 27.4844 25.3563C27.6284 25.3563 27.7728 25.3066 27.8883 25.2052L31.8383 21.7491C32.5371 21.1346 32.9477 20.2923 32.9954 19.3776C33.0427 18.4629 32.7209 17.5844 32.089 16.9049ZM29.1098 12.368C29.2207 12.9604 29.088 13.5594 28.7352 14.0549L27.0952 16.3609L23.3606 13.8499L25.3376 9.02847L28.1473 10.9177C28.657 11.2603 28.9985 11.7751 29.1098 12.368ZM23.3677 21.6014L20.8707 19.9221L22.9016 14.9697L26.4076 17.3272L23.3677 21.6014ZM19.6403 26.8418L18.3807 25.9947L20.4116 21.0419L22.6806 22.5673L19.6403 26.8418ZM20.5702 17.4832L18.8196 16.8044C18.5096 16.684 18.1584 16.8309 18.0346 17.1323C17.9112 17.4335 18.0622 17.7752 18.3719 17.8953L20.1228 18.574L18.0476 23.6346L14.6918 22.3338V16.4687L15.9703 16.9643C16.0434 16.9928 16.1192 17.0062 16.1937 17.0062C16.4335 17.0062 16.6607 16.8663 16.7549 16.6364C16.8787 16.3348 16.7277 15.9935 16.4175 15.8731L14.6918 15.2041V9.33858L22.6454 12.4225L20.5702 17.4832ZM13.4836 13.8169H6.64057C6.30696 13.8169 6.03667 14.0802 6.03667 14.4045C6.03667 14.7288 6.30696 14.9917 6.64057 14.9917H13.4836V20.44H1.20824V14.9917H4.06609C4.39959 14.9917 4.67031 14.7288 4.67031 14.4045C4.67031 14.0802 4.39959 13.8169 4.06609 13.8169H1.20824V8.36889H13.4832V13.8169H13.4836V13.8169ZM1.20824 21.6148H13.4832V27.0627H1.20824V21.6148ZM14.6918 23.5985L17.6003 24.726L14.6918 31.8187V23.5985ZM18.456 30.5723L19.126 31.2925L15.9949 34.0322L18.456 30.5723ZM15.8456 32.1771L17.9217 27.1141L18.9531 27.8078L15.8456 32.1771ZM15.8656 2.81837L22.9593 5.56826C23.5347 5.7916 23.9863 6.21889 24.2311 6.77222C24.3993 7.15274 24.4559 7.56128 24.4002 7.96118C24.3989 7.96566 24.3985 7.97056 24.3977 7.97503C24.3721 8.15243 24.3244 8.32743 24.2546 8.49795L23.0928 11.3312L14.6918 8.07389V4.14451C14.6918 3.64482 14.5804 3.17035 14.382 2.74191C14.8667 2.60889 15.3844 2.6316 15.8656 2.81837ZM3.52743 1.88941H11.1643C12.4428 1.88941 13.4836 2.90097 13.4836 4.14451V7.1942H1.20824V4.14451C1.20824 2.90097 2.24859 1.88941 3.52743 1.88941ZM1.20824 33.5724V28.2375H13.4832V33.5724C13.4832 36.8629 10.73 39.54 7.34571 39.54C3.96142 39.54 1.20824 36.8629 1.20824 33.5724ZM23.7009 27.2894L20.0241 30.5068L19.162 29.5798L22.052 25.5166L23.7009 27.2894ZM31.7885 19.3187C31.7575 19.92 31.4872 20.4739 31.0289 20.8771L29.1738 22.5002L26.354 19.4679L29.1662 15.5141L31.1926 17.6931C31.6081 18.1398 31.8199 18.7168 31.7885 19.3187Z" fill="#B777BE"/>
<path d="M7.20924 30.777C5.6119 30.777 4.3125 32.0407 4.3125 33.594C4.3125 35.1471 5.6119 36.4105 7.20924 36.4105C8.80668 36.4105 10.1064 35.1471 10.1064 33.594C10.1064 32.0407 8.80668 30.777 7.20924 30.777ZM7.20924 35.2357C6.27815 35.2357 5.52073 34.4993 5.52073 33.594C5.52073 32.6885 6.27815 31.9517 7.20924 31.9517C8.14042 31.9517 8.89828 32.6885 8.89828 33.594C8.89828 34.4993 8.14042 35.2357 7.20924 35.2357Z" fill="#B777BE"/>
</g>
<defs>
<clipPath id="clip0_497_1373">
<rect width="33" height="40" fill="white" transform="translate(0 0.714722)"/>
</clipPath>
</defs>
</svg>
