<svg width="44" height="51" viewBox="0 0 44 51" fill="none" xmlns="http://www.w3.org/2000/svg">
<g clip-path="url(#clip0_497_1358)">
<path d="M28.3071 28.0763C29.1941 29.8744 29.7063 31.8546 29.81 33.8775H23.8314C23.6824 32.1709 23.0368 30.5706 21.9659 29.2555L22.7713 28.429C23.0626 28.1301 23.0626 27.6455 22.7713 27.3467L22.7713 27.3466C22.48 27.0478 22.0079 27.0478 21.7167 27.3467L19.8801 29.2314L20.3335 29.6967C21.5306 30.9251 22.2805 32.5561 22.365 34.2911C22.5671 38.4396 19.1707 41.8465 15.1035 41.5074C11.8399 41.2354 9.21548 38.5252 8.96904 35.1747C8.6721 31.1375 11.7891 27.7549 15.6615 27.7549H16.4073V20.1232C18.2587 20.2234 20.079 20.6942 21.7431 21.5053C22.0988 21.6787 22.5248 21.5289 22.7115 21.1732L22.7115 21.1731C22.9156 20.7844 22.7557 20.3038 22.3668 20.1148C20.2846 19.1028 17.9829 18.5709 15.6615 18.5709C6.82028 18.5709 -0.333354 26.1278 0.0120005 35.278C0.326827 43.6193 6.91424 50.3793 15.0426 50.7024C23.9591 51.0568 31.3231 43.7157 31.3231 34.6428C31.3231 32.1094 30.7397 29.6111 29.6299 27.3686C29.4382 26.9812 28.965 26.8426 28.5976 27.0585L28.5975 27.0586C28.2501 27.2628 28.1262 27.7098 28.3071 28.0763ZM23.8297 35.4081H29.8118C29.6375 38.8419 28.2967 41.9638 26.1896 44.3645L21.9625 40.0266C22.9998 38.7504 23.6754 37.1555 23.8297 35.4081ZM20.9078 41.109L25.1348 45.4469C22.7955 47.6091 19.7533 48.985 16.4072 49.1639V43.0251C18.11 42.8668 19.6641 42.1734 20.9078 41.109ZM14.9156 43.0251V49.1639C11.5695 48.985 8.52733 47.6091 6.18805 45.4469L10.4151 41.109C11.6587 42.1734 13.2129 42.8668 14.9156 43.0251ZM9.36032 40.0266L5.1333 44.3645C3.02631 41.9639 1.68548 38.842 1.51107 35.4081H7.49317C7.6474 37.1555 8.32308 38.7504 9.36032 40.0266ZM7.49238 33.8775H1.51106C1.68538 30.4437 3.0263 27.3218 5.1333 24.9211L9.36003 29.2586C8.32269 30.5349 7.64651 32.13 7.49238 33.8775ZM10.4147 28.1763L6.18804 23.8388C8.52733 21.6766 11.5695 20.3007 14.9156 20.1218V26.2588C13.2126 26.4169 11.6584 27.1118 10.4147 28.1763Z" fill="#B777BE"/>
<path d="M43.201 1.53527C42.1349 0.441155 40.3999 0.441257 39.3337 1.53527L36.3456 4.60168L35.4666 3.69962L34.4121 4.78199L35.2911 5.68406L28.0837 13.0804C27.2004 13.9868 27.0496 15.3641 27.6301 16.4321L26.8532 17.2293C26.5619 17.5282 26.562 18.0128 26.8532 18.3117L26.8532 18.3117C27.1445 18.6105 27.6167 18.6105 27.9079 18.3117L28.6847 17.5145C29.0974 17.7506 29.5572 17.8695 30.0173 17.8695C30.7175 17.8695 31.4178 17.596 31.9509 17.0489L39.1582 9.65265L40.0371 10.5545L41.0916 9.47223L40.2129 8.57047L43.201 5.50406C44.2672 4.40974 44.2672 2.62948 43.201 1.53527ZM30.8961 15.9665C30.4116 16.4638 29.6229 16.4639 29.1383 15.9665C28.6537 15.4691 28.6537 14.6599 29.1383 14.1626L36.3457 6.76634L38.1036 8.57027L30.8961 15.9665ZM42.1464 4.42158L39.1582 7.48799L37.4004 5.68406L40.3884 2.61775C40.6308 2.36896 40.9491 2.24468 41.2674 2.24468C41.5857 2.24468 41.904 2.36907 42.1464 2.61765C42.631 3.11501 42.631 3.92421 42.1464 4.42158Z" fill="#B777BE"/>
<path d="M25.5607 27.2446C27.0685 27.2446 28.2953 25.9858 28.2953 24.4384C28.2953 24.0476 28.1817 23.3272 27.2002 21.5908C26.694 20.6955 26.1953 19.9529 26.1744 19.9217L25.5607 19.01L24.9471 19.9217C24.9261 19.9529 24.4273 20.6955 23.9213 21.5908C22.9397 23.3272 22.8262 24.0476 22.8262 24.4384C22.8262 25.9858 24.0529 27.2446 25.5607 27.2446ZM25.5607 21.7577C26.233 22.8756 26.8037 24.0294 26.8037 24.4385C26.8037 25.1419 26.2462 25.7141 25.5607 25.7141C24.8753 25.7141 24.3177 25.1419 24.3177 24.4385C24.3177 24.0294 24.8884 22.8756 25.5607 21.7577Z" fill="#B777BE"/>
</g>
<defs>
<clipPath id="clip0_497_1358">
<rect width="44" height="50" fill="white" transform="translate(0 0.714722)"/>
</clipPath>
</defs>
</svg>
