<svg width="20" height="20" viewBox="0 0 20 20" fill="none" xmlns="http://www.w3.org/2000/svg">
<path d="M17.981 11.2046C17.491 15.2646 14.581 15.5246 14.051 15.7046C13.821 15.7746 11.701 16.3146 9.04102 16.1446L6.15102 19.3446V15.6546L6.13102 15.6446C2.25102 14.5446 2.38102 10.4046 2.43102 8.23456C2.47102 6.06456 2.86102 4.29456 4.05102 3.09456C6.17102 1.12456 10.551 1.41456 10.551 1.41456C14.251 1.43456 16.021 2.57456 16.431 2.95456C17.791 4.15456 18.481 7.01456 17.981 11.2046ZM17.431 1.94456C16.941 1.48456 14.981 0.0245636 10.611 0.0145636C10.611 0.0145636 5.46102 -0.305436 2.95102 2.05456C1.55102 3.48456 1.06102 5.58456 1.01102 8.17456C0.961017 10.7746 0.891017 15.6446 5.47102 16.9646V18.9746C5.47102 18.9746 5.44102 19.7946 5.96102 19.9546C6.59102 20.1546 6.97102 19.5346 7.57102 18.8646C7.90102 18.4946 8.36102 17.9546 8.71102 17.5446C11.841 17.8146 14.261 17.1946 14.531 17.1046C15.161 16.8946 18.741 16.4246 19.331 11.5546C19.941 6.54456 19.051 3.37456 17.431 1.94456Z" fill="#B777BE"/>
<path d="M14.6417 11.8146C14.6417 11.8146 14.0517 11.3146 13.7717 11.0946C13.5017 10.8946 13.0717 10.6146 12.8317 10.4846C12.4017 10.2346 11.9617 10.3946 11.7817 10.6346L11.4017 11.1246C11.2117 11.3746 10.9117 11.3346 10.8317 11.3146C10.2717 11.1746 9.6817 10.8246 9.0717 10.2346C8.4417 9.63461 8.0717 9.01461 7.9417 8.36461L7.9317 8.32461C7.8917 8.05461 7.9417 7.93461 8.0517 7.75461L8.0717 7.73461C8.3317 7.49461 8.8017 7.20461 8.8617 6.93461C9.0517 6.45461 8.2417 5.45461 8.1217 5.28461C8.1217 5.28461 7.5317 4.50461 7.3217 4.35461C7.1017 4.17461 6.7517 4.06461 6.4017 4.28461L6.3817 4.29461C5.3717 4.97461 5.0017 5.37461 5.1017 5.96461L5.1517 6.19461C5.6617 7.81461 6.6617 9.54461 8.1317 11.0746C9.5917 12.5946 11.1817 13.5046 12.7317 14.1346C13.1417 14.2646 13.5617 14.1546 13.9917 13.7846H14.0017C14.3317 13.4746 14.5917 13.1446 14.7917 12.7946V12.7846C14.9817 12.4046 14.9217 12.0546 14.6417 11.8146Z" fill="#B777BE"/>
<path d="M12.2102 8.26455C12.1502 8.26455 12.1002 8.21455 12.0902 8.15455C12.0702 7.73455 11.9602 7.41455 11.7502 7.19455C11.5502 6.98455 11.2502 6.86455 10.8502 6.84455C10.7902 6.84455 10.7402 6.78455 10.7402 6.71455C10.7402 6.64455 10.8002 6.59455 10.8602 6.60455C11.3102 6.63455 11.6702 6.77455 11.9102 7.03455C12.1502 7.29455 12.2902 7.66455 12.3102 8.14455C12.3302 8.20455 12.2802 8.26455 12.2102 8.26455Z" fill="#B777BE"/>
<path d="M13.3702 8.66456C13.3002 8.66456 13.2502 8.60456 13.2502 8.54456C13.2702 7.73456 13.0302 7.05456 12.5502 6.51456C12.3102 6.24456 12.0202 6.03456 11.6802 5.88456C11.3402 5.73456 10.9502 5.64456 10.5202 5.60456C10.4602 5.60456 10.4102 5.54456 10.4102 5.47456C10.4102 5.40456 10.4702 5.35456 10.5302 5.36456C11.4602 5.43456 12.2002 5.76456 12.7202 6.34456C13.2402 6.92456 13.5002 7.66456 13.4802 8.53456C13.4802 8.61456 13.4302 8.66456 13.3702 8.66456Z" fill="#B777BE"/>
<path d="M14.5517 9.13456C14.4917 9.13456 14.4317 9.08456 14.4317 9.01456C14.4217 8.30456 14.3217 7.65456 14.1117 7.09456C13.9017 6.54456 13.5917 6.05456 13.1917 5.64456C12.7817 5.23456 12.3217 4.92456 11.8117 4.72456C11.3017 4.52456 10.7417 4.41456 10.1317 4.41456C10.0717 4.41456 10.0117 4.36456 10.0117 4.29456C10.0117 4.22456 10.0617 4.17456 10.1317 4.17456C11.4117 4.18456 12.4917 4.62456 13.3517 5.48456C13.7817 5.91456 14.1117 6.43456 14.3317 7.02456C14.5517 7.60456 14.6617 8.28456 14.6717 9.02456C14.6617 9.08456 14.6117 9.13456 14.5517 9.13456Z" fill="#B777BE"/>
</svg>
